{
  "accessors": [
    {
      "bufferView": 2,
      "componentType": 5126,
      "count": 8878,
      "max": [
        0.9872310161590576,
        0.9872310161590576,
        0.8545886874198914
      ],
      "min": [
        -0.9872305393218994,
        -0.9872307181358337,
        -0.9975767135620117
      ],
      "type": "VEC3"
    },
    {
      "bufferView": 2,
      "byteOffset": 106536,
      "componentType": 5126,
      "count": 8878,
      "max": [
        1.0,
        1.0,
        1.0
      ],
      "min": [
        -1.0,
        -1.0,
        -1.0
      ],
      "type": "VEC3"
    },
    {
      "bufferView": 1,
      "componentType": 5126,
      "count": 8878,
      "max": [
        1.0000001192092896,
        1.0000001192092896
      ],
      "min": [
        0.0,
        0.0
      ],
      "type": "VEC2"
    },
    {
      "bufferView": 0,
      "componentType": 5125,
      "count": 47616,
      "type": "SCALAR"
    },
    {
      "bufferView": 2,
      "byteOffset": 213072,
      "componentType": 5126,
      "count": 1213,
      "max": [
        3.802913188934326,
        3.912416696548462,
        3.104052782058716
      ],
      "min": [
        -3.9124159812927246,
        -3.953906297683716,
        -2.138712167739868
      ],
      "type": "VEC3"
    },
    {
      "bufferView": 2,
      "byteOffset": 227628,
      "componentType": 5126,
      "count": 1213,
      "max": [
        0.9955217838287354,
        0.9999999403953552,
        0.9999945163726807
      ],
      "min": [
        -0.9999732971191406,
        -0.9970737099647522,
        -1.0
      ],
      "type": "VEC3"
    },
    {
      "bufferView": 1,
      "byteOffset": 71024,
      "componentType": 5126,
      "count": 1213,
      "max": [
        1.0000001192092896,
        1.0000001192092896
      ],
      "min": [
        0.0,
        0.0
      ],
      "type": "VEC2"
    },
    {
      "bufferView": 0,
      "byteOffset": 190464,
      "componentType": 5125,
      "count": 6144,
      "type": "SCALAR"
    }
  ],
  "asset": {
    "extras": {
      "author": "Re Na (https://sketchfab.com/renann)",
      "license": "SKETCHFAB Standard (https://sketchfab.com/licenses)",
      "source": "https://sketchfab.com/3d-models/orange-fruit-5778d1bccf9f4a629c3a22e7e639b30e",
      "title": "Orange Fruit"
    },
    "generator": "Sketchfab-15.87.0",
    "version": "2.0"
  },
  "bufferViews": [
    {
      "buffer": 0,
      "byteLength": 215040,
      "name": "floatBufferViews",
      "target": 34963
    },
    {
      "buffer": 0,
      "byteLength": 80728,
      "byteOffset": 215040,
      "byteStride": 8,
      "name": "floatBufferViews",
      "target": 34962
    },
    {
      "buffer": 0,
      "byteLength": 242184,
      "byteOffset": 295768,
      "byteStride": 12,
      "name": "floatBufferViews",
      "target": 34962
    }
  ],
  "buffers": [
    {
      "byteLength": 537952,
      "uri": "scene.bin"
    }
  ],
  "materials": [
    {
      "doubleSided": true,
      "name": "Material.002",
      "pbrMetallicRoughness": {
        "baseColorFactor": [
          0.3853122101165527,
          0.17661532191192733,
          0.01980345055387213,
          1.0
        ],
        "metallicFactor": 0.0,
        "roughnessFactor": 0.9523326766929606
      }
    },
    {
      "doubleSided": true,
      "name": "Material.001",
      "pbrMetallicRoughness": {
        "baseColorFactor": [
          0.0165827,
          0.287043,
          0.0109049,
          1.0
        ],
        "metallicFactor": 0.0,
        "roughnessFactor": 0.9531306803931859
      }
    }
  ],
  "meshes": [
    {
      "name": "Sphere_Material.002_0",
      "primitives": [
        {
          "attributes": {
            "NORMAL": 1,
            "POSITION": 0,
            "TEXCOORD_0": 2
          },
          "indices": 3,
          "material": 0,
          "mode": 4
        }
      ]
    },
    {
      "name": "Cylinder_Material.001_0",
      "primitives": [
        {
          "attributes": {
            "NORMAL": 5,
            "POSITION": 4,
            "TEXCOORD_0": 6
          },
          "indices": 7,
          "material": 1,
          "mode": 4
        }
      ]
    }
  ],
  "nodes": [
    {
      "children": [
        1
      ],
      "matrix": [
        1.0,
        0.0,
        0.0,
        0.0,
        0.0,
        2.220446049250313e-16,
        -1.0,
        0.0,
        0.0,
        1.0,
        2.220446049250313e-16,
        0.0,
        0.0,
        0.0,
        0.0,
        1.0
      ],
      "name": "Sketchfab_model"
    },
    {
      "children": [
        2
      ],
      "matrix": [
        0.009999999776482582,
        0.0,
        0.0,
        0.0,
        0.0,
        0.0,
        0.009999999776482582,
        0.0,
        0.0,
        -0.009999999776482582,
        0.0,
        0.0,
        0.0,
        0.0,
        0.0,
        1.0
      ],
      "name": "c24b335166a34cb9a2973c886e9fbcd8.fbx"
    },
    {
      "children": [
        3,
        5
      ],
      "name": "RootNode"
    },
    {
      "children": [
        4
      ],
      "matrix": [
        100.0,
        0.0,
        0.0,
        0.0,
        0.0,
        -1.629206793918314e-05,
        -99.99999999999868,
        0.0,
        0.0,
        99.99999999999868,
        -1.629206793918314e-05,
        0.0,
        0.0,
        0.0,
        0.0,
        1.0
      ],
      "name": "Sphere"
    },
    {
      "mesh": 0,
      "name": "Sphere_Material.002_0"
    },
    {
      "children": [
        6
      ],
      "matrix": [
        2.093376636505127,
        0.0,
        0.0,
        0.0,
        0.0,
        -3.410543438424022e-07,
        -2.0933766365050994,
        0.0,
        0.0,
        4.892893314361507,
        -7.971535029675371e-07,
        0.0,
        0.0,
        83.31729125976563,
        0.0,
        1.0
      ],
      "name": "Cylinder"
    },
    {
      "mesh": 1,
      "name": "Cylinder_Material.001_0"
    }
  ],
  "scene": 0,
  "scenes": [
    {
      "name": "Sketchfab_Scene",
      "nodes": [
        0
      ]
    }
  ]
}
